HIERARCHY
ROOT Hips
{
	OFFSET -13.091600 -28.302996 44.698402
	CHANNELS 6 Xposition Yposition Zposition Zrotation Xrotation Yrotation
	JOINT Chest
	{
		OFFSET -0.673000 0.623899 5.369202
		CHANNELS 6 Xposition Yposition Zposition Zrotation Xrotation Yrotation
		JOINT Chest2
		{
			OFFSET 0.000000 0.000000 4.415001
			CHANNELS 6 Xposition Yposition Zposition Zrotation Xrotation Yrotation
			JOINT Neck
			{
				OFFSET 0.000000 0.000002 10.273300
				CHANNELS 6 Xposition Yposition Zposition Zrotation Xrotation Yrotation
				JOINT Head
				{
					OFFSET 0.000000 0.000000 2.173897
					CHANNELS 6 Xposition Yposition Zposition Zrotation Xrotation Yrotation
					End Site
					{
						OFFSET 0.000000 0.000000 9.961800
					}
				}
			}
			JOINT LeftCollar
			{
				OFFSET 2.359900 -0.565201 5.928101
				CHANNELS 6 Xposition Yposition Zposition Zrotation Xrotation Yrotation
				JOINT LeftShoulder
				{
					OFFSET 5.443700 0.000000 0.000000
					CHANNELS 6 Xposition Yposition Zposition Zrotation Xrotation Yrotation
					JOINT LeftElbow
					{
						OFFSET 0.000000 0.000000 -10.615799
						CHANNELS 6 Xposition Yposition Zposition Zrotation Xrotation Yrotation
						JOINT LeftWrist
						{
							OFFSET 0.000000 -0.000002 -13.110302
							CHANNELS 6 Xposition Yposition Zposition Zrotation Xrotation Yrotation
							End Site
							{
								OFFSET 0.000000 0.000000 -2.173901
							}
						}
					}
				}
			}
			JOINT RightCollar
			{
				OFFSET -2.636600 -1.718800 6.889698
				CHANNELS 6 Xposition Yposition Zposition Zrotation Xrotation Yrotation
				JOINT RightShoulder
				{
					OFFSET -4.139101 0.000000 0.000000
					CHANNELS 6 Xposition Yposition Zposition Zrotation Xrotation Yrotation
					JOINT RightElbow
					{
						OFFSET 0.000000 0.000000 -10.471802
						CHANNELS 6 Xposition Yposition Zposition Zrotation Xrotation Yrotation
						JOINT RightWrist
						{
							OFFSET 0.000000 0.000000 -12.281898
							CHANNELS 6 Xposition Yposition Zposition Zrotation Xrotation Yrotation
							End Site
							{
								OFFSET 0.000000 -0.000002 -2.173901
							}
						}
					}
				}
			}
		}
	}
	JOINT LeftHip
	{
		OFFSET 2.273400 0.176701 -2.518002
		CHANNELS 6 Xposition Yposition Zposition Zrotation Xrotation Yrotation
		JOINT LeftKnee
		{
			OFFSET 0.000000 -0.000002 -20.456402
			CHANNELS 6 Xposition Yposition Zposition Zrotation Xrotation Yrotation
			JOINT LeftAnkle
			{
				OFFSET 0.000000 -0.000002 -16.635300
				CHANNELS 6 Xposition Yposition Zposition Zrotation Xrotation Yrotation
				End Site
				{
					OFFSET 0.000000 -8.812399 0.000001
				}
			}
		}
	}
	JOINT RightHip
	{
		OFFSET -1.914800 0.018101 -2.699299
		CHANNELS 6 Xposition Yposition Zposition Zrotation Xrotation Yrotation
		JOINT RightKnee
		{
			OFFSET 0.000000 -0.000002 -20.148901
			CHANNELS 6 Xposition Yposition Zposition Zrotation Xrotation Yrotation
			JOINT RightAnkle
			{
				OFFSET 0.000000 -0.000002 -16.838301
				CHANNELS 6 Xposition Yposition Zposition Zrotation Xrotation Yrotation
				End Site
				{
					OFFSET 0.000000 -8.328398 0.000001
				}
			}
		}
	}
}
MOTION
Frames: 7
Frame Time: 0.041667
-36.854599 -26.888899 45.626999 889.493623 -2.262408 -2.066560 -0.673006 0.623895 5.369213 10.452834 10.313416 -1.976795 -0.000001 -0.000003 4.415000 -12.765141 -0.316650 -1.097239 -0.000004 0.000001 10.273307 8.225507 26.684038 2.281534 -0.000002 -0.000001 2.173903 1.774876 1.714176 1.462075 2.359892 -0.565197 5.928102 -0.834939 6.669094 -11.708850 5.443695 -0.000005 -0.000006 -37.945198 34.087668 -41.818404 -0.000004 0.000002 -10.615789 514.825454 -184.478519 182.860188 0.000002 0.000005 -13.110303 208.627923 -184.156722 205.206982 -2.636606 -1.718801 6.889703 185.349764 -188.026734 188.955271 -4.139095 0.000000 0.000000 -3.307645 -390.168956 98.933924 0.000004 0.000000 -10.471794 54.308200 -34.381980 -382.510592 -0.000004 -0.000002 -12.281898 330.174568 20.094241 -3.270812 2.273394 0.176701 -2.517995 -162.807818 -171.491201 -179.302151 -0.000004 -0.000001 -20.456396 162.592612 147.763124 -169.950529 -0.000002 -0.000000 -16.635300 24.641396 9.834868 9.145978 -1.914802 0.018099 -2.699296 152.455956 195.335965 186.464861 -0.000002 -0.000005 -20.148897 3.894186 42.265842 -3.735264 -0.000003 0.000008 -16.838301 -12.819620 21.064811 -3.867270
-36.959396 -26.886496 45.622902 889.317186 -2.017743 -2.131480 -0.672998 0.623899 5.369205 10.624415 10.052097 -1.941654 0.000001 -0.000003 4.415007 -13.037804 -0.322213 -1.132843 -0.000001 0.000001 10.273310 8.546467 26.356677 2.448652 -0.000002 0.000000 2.173892 2.106326 1.682155 1.422544 2.359898 -0.565194 5.928109 -0.699556 6.406142 -11.608897 5.443702 -0.000005 -0.000005 -37.697689 33.705580 -41.998686 -0.000003 -0.000001 -10.615793 514.019929 -184.525661 182.904584 0.000003 0.000007 -13.110299 206.838236 -183.767551 205.122739 -2.636602 -1.718796 6.889707 185.236411 -188.030859 189.962041 -4.139105 -0.000005 0.000001 -5.839297 -377.024338 97.685099 0.000005 0.000001 -10.471798 41.568945 -33.777932 -380.449351 -0.000002 -0.000006 -12.281901 331.242646 20.019124 -4.109928 2.273399 0.176699 -2.518002 -162.682661 -171.251134 -179.170328 -0.000004 -0.000004 -20.456394 162.293955 147.677214 -169.526552 -0.000001 0.000001 -16.635300 25.022799 9.862309 9.423738 -1.914797 0.018102 -2.699296 151.768456 196.196159 186.297207 -0.000004 -0.000005 -20.148897 4.664491 43.070715 -3.761909 -0.000001 -0.000002 -16.838301 -12.647013 21.105406 -3.795519
-37.069405 -26.883801 45.616001 889.155338 -1.759942 -2.208613 -0.672997 0.623899 5.369208 10.780111 9.807273 -1.894731 0.000003 0.000000 4.415012 -13.275108 -0.336827 -1.164710 0.000000 -0.000004 10.273303 8.825375 26.010718 2.600344 -0.000003 -0.000001 2.173890 2.450116 1.667610 1.382112 2.359897 -0.565200 5.928108 -0.637791 6.213970 -11.451260 5.443701 -0.000003 -0.000001 -37.350029 33.276647 -42.229233 0.000001 -0.000004 -10.615795 513.202929 -184.539567 182.948885 0.000001 0.000003 -13.110293 205.128968 -183.398994 205.016420 -2.636604 -1.718804 6.889711 185.400868 -188.054273 190.914538 -4.139099 -0.000010 -0.000006 -5.469743 -378.743415 98.157530 0.000003 -0.000001 -10.471794 43.207367 -32.945400 -379.563748 0.000001 -0.000003 -12.281901 332.334411 19.887822 -4.944897 2.273398 0.176702 -2.517997 -162.535375 -170.963173 -178.990503 -0.000001 -0.000004 -20.456396 162.059639 147.550760 -169.153132 -0.000005 -0.000003 -16.635300 25.137222 10.003256 9.585836 -1.914798 0.018104 -2.699298 151.009431 197.128945 186.120319 -0.000001 -0.000009 -20.148899 5.544846 43.972235 -3.838583 -0.000007 -0.000001 -16.838303 -12.412680 21.097037 -3.841428
-37.183601 -26.881199 45.605305 888.995566 -1.493009 -2.307484 -0.673000 0.623896 5.369211 10.931143 9.571574 -1.827135 0.000004 -0.000003 4.415011 -13.463256 -0.459022 -1.203044 -0.000007 -0.000004 10.273300 9.051134 25.775061 2.738772 -0.000001 -0.000002 2.173891 2.811587 1.634355 1.362043 2.359894 -0.565202 5.928102 -0.719717 6.263574 -11.154087 5.443695 -0.000002 -0.000004 -36.806609 32.822570 -42.598992 -0.000001 0.000005 -10.615789 512.316534 -184.513449 182.996272 0.000002 -0.000001 -13.110299 203.547765 -183.050122 204.914759 -2.636600 -1.718802 6.889702 185.218994 -188.015655 191.776330 -4.139103 -0.000014 -0.000001 -5.047773 -378.745164 98.594662 0.000005 0.000004 -10.471800 43.070790 -32.090319 -378.639104 0.000000 -0.000002 -12.281893 333.674494 19.431910 -6.496366 2.273396 0.176701 -2.517996 -162.306222 -170.621759 -178.748346 0.000001 -0.000002 -20.456400 161.829202 147.360020 -168.810106 0.000001 -0.000003 -16.635296 25.061356 10.243329 9.627051 -1.914802 0.018099 -2.699292 150.095716 198.159729 185.903570 0.000003 -0.000006 -20.148901 6.462961 44.970922 -3.763709 -0.000003 0.000001 -16.838303 -12.018130 21.100447 -3.987965
-37.301903 -26.880196 45.591702 888.860219 -1.195912 -2.436146 -0.673005 0.623893 5.369211 11.054024 9.320721 -1.724370 -0.000005 -0.000005 4.415006 -13.646270 -0.486866 -1.225770 -0.000001 -0.000004 10.273294 9.268075 25.436372 2.868923 0.000004 0.000002 2.173892 3.110449 1.699653 1.361010 2.359900 -0.565203 5.928102 -0.921402 6.338495 -10.759739 5.443701 -0.000000 0.000002 -36.001145 32.325421 -43.113462 -0.000001 -0.000001 -10.615793 511.334845 -184.405518 183.041201 0.000002 -0.000001 -13.110304 201.938108 -182.702315 204.776489 -2.636601 -1.718802 6.889703 185.036272 -187.914009 192.586582 -4.139105 -0.000008 -0.000004 -4.600778 -378.787046 99.060262 0.000010 0.000002 -10.471795 42.901572 -31.211178 -377.734323 0.000001 -0.000001 -12.281897 334.854805 18.963450 -7.952066 2.273395 0.176699 -2.517994 -162.017524 -170.205637 -178.429021 0.000003 -0.000002 -20.456396 161.544438 147.080078 -168.458720 0.000001 -0.000006 -16.635298 24.956878 10.464819 9.586270 -1.914802 0.018100 -2.699292 149.125364 199.278064 185.646386 0.000002 -0.000004 -20.148899 7.527567 46.037323 -3.865255 -0.000000 -0.000005 -16.838303 -11.744020 21.095068 -3.987296
-37.422096 -26.880697 45.574406 888.714381 -0.893884 -2.575153 -0.673001 0.623900 5.369203 11.187589 9.089523 -1.615129 0.000001 -0.000002 4.415010 -13.822353 -0.514968 -1.245083 -0.000005 -0.000007 10.273311 9.478187 25.083316 2.999657 -0.000001 -0.000000 2.173895 3.422875 1.565782 1.312495 2.359894 -0.565213 5.928100 -1.370018 6.574359 -10.228746 5.443704 -0.000003 0.000000 -34.839675 31.803014 -43.780539 0.000002 -0.000002 -10.615799 510.375121 -184.236116 183.072497 0.000000 0.000001 -13.110294 200.164294 -182.306860 204.535383 -2.636604 -1.718810 6.889707 184.731810 -187.795792 193.784338 -4.139095 -0.000006 0.000006 -4.162679 -378.831525 99.108401 -0.000002 0.000003 -10.471802 42.811322 -30.345164 -376.792795 -0.000007 -0.000010 -12.281904 335.744970 18.779790 -8.755015 2.273402 0.176706 -2.517995 -161.670304 -169.741293 -178.072894 -0.000001 -0.000004 -20.456392 161.148997 146.713980 -168.059823 -0.000003 -0.000001 -16.635298 24.858221 10.716022 9.585229 -1.914803 0.018102 -2.699290 148.112775 200.432775 185.377809 -0.000002 -0.000002 -20.148901 8.779214 47.132899 -4.093743 0.000002 0.000000 -16.838303 -11.512425 21.097587 -4.014247
-37.543709 -26.882694 45.554405 888.457456 -0.085700 -2.751261 -0.673004 0.623896 5.369207 11.437112 8.395184 -1.372536 -0.000002 0.000001 4.415004 -13.977450 -0.551084 -1.260925 0.000000 -0.000005 10.273310 9.683765 24.744010 3.155828 -0.000001 -0.000005 2.173892 3.755313 1.432525 1.257912 2.359896 -0.565205 5.928102 -1.716142 6.800989 -9.645219 5.443696 0.000000 -0.000000 -33.784534 31.314423 -44.483885 -0.000003 -0.000001 -10.615801 509.575388 -184.017618 183.079573 0.000001 0.000003 -13.110295 198.317247 -181.922211 204.178424 -2.636603 -1.718804 6.889704 184.709202 -187.753882 193.832313 -4.139095 -0.000002 0.000000 -3.652667 -378.966134 100.299989 0.000002 -0.000001 -10.471803 42.555975 -29.422874 -375.954731 -0.000008 -0.000003 -12.281895 336.848811 18.525182 -9.545247 2.273399 0.176700 -2.517999 -161.099314 -168.790094 -177.501317 -0.000003 -0.000004 -20.456398 160.591135 146.293527 -167.569129 -0.000001 -0.000002 -16.635298 24.872656 10.892134 9.678339 -1.914798 0.018097 -2.699299 146.945400 202.084247 184.751576 0.000000 0.000001 -20.148901 10.193086 48.281429 -4.361034 -0.000000 -0.000002 -16.838301 -11.281012 21.144498 -3.947117
